<?xml version="1.0" encoding="utf-8"?>
<!-- Generator: Adobe Illustrator 16.0.0, SVG Export Plug-In . SVG Version: 6.00 Build 0)  -->
<!DOCTYPE svg PUBLIC "-//W3C//DTD SVG 1.1//EN" "http://www.w3.org/Graphics/SVG/1.1/DTD/svg11.dtd">
<svg version="1.1" id="Layer_1" xmlns="http://www.w3.org/2000/svg" xmlns:xlink="http://www.w3.org/1999/xlink" x="0px" y="0px"
	 width="600px" height="420px" viewBox="0 0 600 420" enable-background="new 0 0 600 420" xml:space="preserve">
<polygon fill="none" stroke="#FFCD7D" stroke-width="5" stroke-miterlimit="10" points="116.02,139.742 109.342,146.251 
	102.665,139.742 109.342,133.234 "/>
<ellipse fill="none" stroke="#FFC20F" stroke-width="5" stroke-miterlimit="10" cx="474.326" cy="392.701" rx="5.632" ry="5.675"/>
<ellipse fill="none" stroke="#2962FF" stroke-width="5" stroke-miterlimit="10" cx="528.029" cy="192.355" rx="5.634" ry="5.675"/>
<polygon fill="none" stroke="#2962FF" stroke-width="5" stroke-miterlimit="10" points="42.902,381.878 48.011,387.024 
	42.902,392.173 37.792,387.025 "/>
<path opacity="0.5" fill="#2962FF" enable-background="new    " d="M580.412,82.333c0,1.952-1.571,3.536-3.509,3.536h-12.72
	c-1.938,0-3.51-1.584-3.51-3.536v-0.22c0-1.953,1.572-3.536,3.51-3.536h12.72c1.938,0,3.509,1.583,3.509,3.536V82.333z"/>
<path opacity="0.5" fill="#2962FF" enable-background="new    " d="M580.413,302.905c0,1.952-1.573,3.534-3.51,3.534h-12.72
	c-1.938,0-3.511-1.582-3.511-3.534v-0.22c0-1.954,1.573-3.537,3.511-3.537h12.72c1.938,0,3.51,1.583,3.51,3.537V302.905z"/>
<path opacity="0.5" fill="#2962FF" enable-background="new    " d="M47.661,230.743c0,1.953-1.573,3.536-3.51,3.536H31.432
	c-1.938,0-3.509-1.582-3.509-3.536v-0.22c0-1.952,1.571-3.535,3.509-3.535h12.719c1.938,0,3.51,1.583,3.51,3.535V230.743z"/>
<path opacity="0.5" fill="#2962FF" enable-background="new    " d="M171.667,51.098c0,1.952-1.572,3.535-3.51,3.535h-12.72
	c-1.937,0-3.509-1.583-3.509-3.535v-0.22c0-1.954,1.573-3.536,3.509-3.536h12.72c1.938,0,3.51,1.583,3.51,3.536V51.098z"/>
<polygon fill="none" stroke="#2962FF" stroke-width="5" stroke-miterlimit="10" points="317.981,22.228 311.304,28.737 
	304.627,22.228 311.304,15.721 "/>
<path fill="#2962FF" d="M115.063,336.202c0,0-21.978-97.257,88.657-203.712c0,0,293.482-292.358,281.732,104.456
	c0,0,5.788,194.993-183.897,174.91C301.552,411.854,138.607,395.009,115.063,336.202z"/>
<g>
	<g>
		<path opacity="0.7" fill="#7753A0" d="M456.066,223.694c6.701,10.806,3.375,24.999-7.432,31.701L279.874,360.054
			c-10.806,6.703-24.999,3.375-31.701-7.431l-58.144-93.756c-6.702-10.806-3.375-24.999,7.432-31.7l168.759-104.661
			c10.807-6.701,25-3.374,31.701,7.433L456.066,223.694z"/>
		<circle fill="#FCE3FE" cx="257.201" cy="259.917" r="26.62"/>
		<path fill="#FCE3FE" d="M326.711,291.782c1.886,3.038,0.949,7.03-2.091,8.915l-47.693,29.578c-3.04,1.885-7.031,0.949-8.915-2.091
			l-0.253-0.406c-1.884-3.04-0.949-7.031,2.089-8.917l47.694-29.577c3.039-1.885,7.032-0.949,8.916,2.089L326.711,291.782z"/>
		<path fill="#FCE3FE" d="M424.416,230.905c1.955,3.152,0.984,7.29-2.167,9.245l-61.961,38.426
			c-3.151,1.956-7.292,0.985-9.246-2.166l0,0c-1.954-3.152-0.984-7.293,2.168-9.246l61.961-38.427
			C418.322,226.783,422.462,227.754,424.416,230.905L424.416,230.905z"/>
	</g>
	<g>
		<path fill="#91B1F9" stroke="#91B1F9" stroke-miterlimit="10" d="M404.263,200.671c6.702,10.805,3.375,24.999-7.433,31.701
			L228.072,337.031c-10.808,6.702-25,3.373-31.703-7.432l-58.145-93.757c-6.701-10.806-3.374-24.998,7.433-31.699l168.76-104.661
			c10.806-6.701,24.999-3.374,31.7,7.432L404.263,200.671z"/>
		<circle fill="#FCE3FE" cx="205.397" cy="236.894" r="26.62"/>
		<path fill="#FCE3FE" d="M274.908,268.758c1.885,3.038,0.949,7.03-2.09,8.916l-47.693,29.578c-3.039,1.884-7.032,0.949-8.916-2.091
			l-0.252-0.407c-1.885-3.039-0.95-7.03,2.088-8.916l47.694-29.578c3.04-1.885,7.033-0.949,8.916,2.09L274.908,268.758z"/>
		<path fill="#FCE3FE" d="M372.613,207.881c1.954,3.153,0.983,7.292-2.168,9.246l-61.96,38.426
			c-3.151,1.956-7.292,0.984-9.247-2.167l0,0c-1.954-3.151-0.983-7.292,2.169-9.246l61.96-38.426
			C366.52,203.76,370.659,204.73,372.613,207.881L372.613,207.881z"/>
	</g>
	<g>
		<path fill="#FFCD7D" d="M348.622,174.769c6.703,10.806,3.375,25-7.431,31.701L172.431,311.129
			c-10.806,6.702-24.999,3.375-31.701-7.432l-58.145-93.756c-6.702-10.805-3.374-24.998,7.432-31.7L258.778,73.581
			c10.806-6.701,24.999-3.374,31.701,7.433L348.622,174.769z"/>
		<circle fill="#FCE3FE" cx="149.756" cy="210.992" r="26.62"/>
		<path fill="#FCE3FE" d="M219.268,242.856c1.884,3.038,0.949,7.031-2.091,8.917l-47.694,29.577
			c-3.039,1.884-7.032,0.948-8.916-2.09l-0.253-0.408c-1.884-3.038-0.948-7.031,2.091-8.915l47.692-29.58
			c3.04-1.883,7.031-0.947,8.917,2.091L219.268,242.856z"/>
		<path fill="#FCE3FE" d="M316.973,181.98c1.954,3.152,0.983,7.292-2.168,9.245l-61.96,38.427c-3.152,1.955-7.292,0.984-9.246-2.166
			l0,0c-1.955-3.152-0.985-7.293,2.167-9.247l61.96-38.426C310.878,177.857,315.019,178.829,316.973,181.98L316.973,181.98z"/>
	</g>
</g>
</svg>
